<mxfile host="Electron" modified="2025-07-02T02:25:54.086Z" agent="Mozilla/5.0 (Windows NT 10.0; Win64; x64) AppleWebKit/537.36 (KHTML, like Gecko) draw.io/21.6.5 Chrome/114.0.5735.243 Electron/25.3.1 Safari/537.36" etag="He2raS38XHpUGCoCMSha" version="21.6.5" type="device">
  <diagram name="Page-1" id="W9wk43fxYG4gXkEmymge">
    <mxGraphModel dx="2284" dy="836" grid="1" gridSize="10" guides="1" tooltips="1" connect="1" arrows="1" fold="1" page="1" pageScale="1" pageWidth="850" pageHeight="1100" math="0" shadow="0">
      <root>
        <mxCell id="0" />
        <mxCell id="1" parent="0" />
        <mxCell id="teR98e18F6Wd4mLwN1pU-4" value="" style="group" parent="1" vertex="1" connectable="0">
          <mxGeometry y="240" width="204" height="110" as="geometry" />
        </mxCell>
        <mxCell id="teR98e18F6Wd4mLwN1pU-1" value="" style="rounded=0;whiteSpace=wrap;html=1;fillColor=#dae8fc;strokeColor=none;" parent="teR98e18F6Wd4mLwN1pU-4" vertex="1">
          <mxGeometry y="36.66666666666667" width="204" height="73.33333333333334" as="geometry" />
        </mxCell>
        <mxCell id="teR98e18F6Wd4mLwN1pU-3" value="&lt;font color=&quot;#d79b00&quot;&gt;Docker - Dify&lt;/font&gt;" style="text;strokeColor=none;align=center;fillColor=none;html=1;verticalAlign=middle;whiteSpace=wrap;rounded=0;" parent="teR98e18F6Wd4mLwN1pU-4" vertex="1">
          <mxGeometry x="-12.67" y="7.83" width="102" height="36.66666666666667" as="geometry" />
        </mxCell>
        <mxCell id="teR98e18F6Wd4mLwN1pU-27" value="" style="group" parent="teR98e18F6Wd4mLwN1pU-4" vertex="1" connectable="0">
          <mxGeometry y="44.5" width="89.33333333333331" height="57.66999999999996" as="geometry" />
        </mxCell>
        <mxCell id="teR98e18F6Wd4mLwN1pU-21" value="Model 1" style="rounded=1;whiteSpace=wrap;html=1;fillColor=#b0e3e6;strokeColor=#0e8088;" parent="teR98e18F6Wd4mLwN1pU-27" vertex="1">
          <mxGeometry x="10" y="25" width="79.33333333333333" height="32.67" as="geometry" />
        </mxCell>
        <mxCell id="teR98e18F6Wd4mLwN1pU-26" value="App1" style="text;strokeColor=none;align=center;fillColor=none;html=1;verticalAlign=middle;whiteSpace=wrap;rounded=0;" parent="teR98e18F6Wd4mLwN1pU-27" vertex="1">
          <mxGeometry width="60" height="30" as="geometry" />
        </mxCell>
        <mxCell id="teR98e18F6Wd4mLwN1pU-29" value="" style="group" parent="teR98e18F6Wd4mLwN1pU-4" vertex="1" connectable="0">
          <mxGeometry x="89.32999999999998" y="44.5" width="89.33333333333331" height="57.66999999999996" as="geometry" />
        </mxCell>
        <mxCell id="teR98e18F6Wd4mLwN1pU-30" value="Model 2" style="rounded=1;whiteSpace=wrap;html=1;fillColor=#b0e3e6;strokeColor=#0e8088;" parent="teR98e18F6Wd4mLwN1pU-29" vertex="1">
          <mxGeometry x="10" y="25" width="79.33333333333333" height="32.67" as="geometry" />
        </mxCell>
        <mxCell id="teR98e18F6Wd4mLwN1pU-31" value="App2" style="text;strokeColor=none;align=center;fillColor=none;html=1;verticalAlign=middle;whiteSpace=wrap;rounded=0;" parent="teR98e18F6Wd4mLwN1pU-29" vertex="1">
          <mxGeometry width="60" height="30" as="geometry" />
        </mxCell>
        <mxCell id="teR98e18F6Wd4mLwN1pU-5" value="" style="group" parent="1" vertex="1" connectable="0">
          <mxGeometry x="340" y="390" width="120" height="90" as="geometry" />
        </mxCell>
        <mxCell id="teR98e18F6Wd4mLwN1pU-6" value="NodeJs" style="rounded=0;whiteSpace=wrap;html=1;fillColor=#dae8fc;strokeColor=none;" parent="teR98e18F6Wd4mLwN1pU-5" vertex="1">
          <mxGeometry y="30" width="120" height="60" as="geometry" />
        </mxCell>
        <mxCell id="teR98e18F6Wd4mLwN1pU-7" value="Service" style="text;strokeColor=none;align=center;fillColor=none;html=1;verticalAlign=middle;whiteSpace=wrap;rounded=0;" parent="teR98e18F6Wd4mLwN1pU-5" vertex="1">
          <mxGeometry width="60" height="30" as="geometry" />
        </mxCell>
        <mxCell id="teR98e18F6Wd4mLwN1pU-8" value="" style="group" parent="1" vertex="1" connectable="0">
          <mxGeometry x="600" y="430" width="120" height="90" as="geometry" />
        </mxCell>
        <mxCell id="teR98e18F6Wd4mLwN1pU-9" value="React" style="rounded=0;whiteSpace=wrap;html=1;fillColor=#dae8fc;strokeColor=none;" parent="teR98e18F6Wd4mLwN1pU-8" vertex="1">
          <mxGeometry y="30" width="120" height="60" as="geometry" />
        </mxCell>
        <mxCell id="teR98e18F6Wd4mLwN1pU-10" value="Web" style="text;strokeColor=none;align=center;fillColor=none;html=1;verticalAlign=middle;whiteSpace=wrap;rounded=0;" parent="teR98e18F6Wd4mLwN1pU-8" vertex="1">
          <mxGeometry width="60" height="30" as="geometry" />
        </mxCell>
        <mxCell id="teR98e18F6Wd4mLwN1pU-16" style="edgeStyle=orthogonalEdgeStyle;rounded=0;orthogonalLoop=1;jettySize=auto;html=1;exitX=0.31;exitY=0.8;exitDx=0;exitDy=0;exitPerimeter=0;entryX=0.5;entryY=0;entryDx=0;entryDy=0;curved=1;" parent="1" source="teR98e18F6Wd4mLwN1pU-11" target="teR98e18F6Wd4mLwN1pU-6" edge="1">
          <mxGeometry relative="1" as="geometry">
            <Array as="points">
              <mxPoint x="517" y="330" />
              <mxPoint x="400" y="330" />
            </Array>
          </mxGeometry>
        </mxCell>
        <mxCell id="teR98e18F6Wd4mLwN1pU-11" value="NetWork&lt;br&gt;( duckduckgo&amp;nbsp;&lt;span style=&quot;background-color: initial;&quot;&gt;)&lt;/span&gt;" style="ellipse;shape=cloud;whiteSpace=wrap;html=1;fillColor=#ffe6cc;strokeColor=#d79b00;" parent="1" vertex="1">
          <mxGeometry x="450" y="220" width="160" height="80" as="geometry" />
        </mxCell>
        <mxCell id="teR98e18F6Wd4mLwN1pU-12" style="edgeStyle=entityRelationEdgeStyle;rounded=0;orthogonalLoop=1;jettySize=auto;html=1;exitX=0;exitY=0.5;exitDx=0;exitDy=0;entryX=1;entryY=0.5;entryDx=0;entryDy=0;" parent="1" source="teR98e18F6Wd4mLwN1pU-9" target="teR98e18F6Wd4mLwN1pU-6" edge="1">
          <mxGeometry relative="1" as="geometry" />
        </mxCell>
        <mxCell id="teR98e18F6Wd4mLwN1pU-15" style="edgeStyle=orthogonalEdgeStyle;rounded=0;orthogonalLoop=1;jettySize=auto;html=1;exitX=0.75;exitY=0;exitDx=0;exitDy=0;entryX=0.55;entryY=0.95;entryDx=0;entryDy=0;entryPerimeter=0;curved=1;" parent="1" source="teR98e18F6Wd4mLwN1pU-6" target="teR98e18F6Wd4mLwN1pU-11" edge="1">
          <mxGeometry relative="1" as="geometry" />
        </mxCell>
        <mxCell id="teR98e18F6Wd4mLwN1pU-17" style="edgeStyle=entityRelationEdgeStyle;rounded=0;orthogonalLoop=1;jettySize=auto;html=1;exitX=0;exitY=0.25;exitDx=0;exitDy=0;entryX=1;entryY=0.25;entryDx=0;entryDy=0;" parent="1" source="teR98e18F6Wd4mLwN1pU-6" target="1dsoiUBW8clE4qAGLpq8-11" edge="1">
          <mxGeometry relative="1" as="geometry" />
        </mxCell>
        <mxCell id="teR98e18F6Wd4mLwN1pU-19" style="edgeStyle=entityRelationEdgeStyle;rounded=0;orthogonalLoop=1;jettySize=auto;html=1;exitX=1;exitY=0.75;exitDx=0;exitDy=0;entryX=0;entryY=0.75;entryDx=0;entryDy=0;" parent="1" source="1dsoiUBW8clE4qAGLpq8-11" target="teR98e18F6Wd4mLwN1pU-6" edge="1">
          <mxGeometry relative="1" as="geometry" />
        </mxCell>
        <mxCell id="teR98e18F6Wd4mLwN1pU-24" style="edgeStyle=entityRelationEdgeStyle;rounded=0;orthogonalLoop=1;jettySize=auto;html=1;exitX=1;exitY=0.75;exitDx=0;exitDy=0;entryX=0;entryY=0.75;entryDx=0;entryDy=0;" parent="1" source="teR98e18F6Wd4mLwN1pU-6" target="teR98e18F6Wd4mLwN1pU-9" edge="1">
          <mxGeometry relative="1" as="geometry" />
        </mxCell>
        <mxCell id="teR98e18F6Wd4mLwN1pU-36" value="&lt;font style=&quot;font-size: 13px;&quot;&gt;Question A&lt;/font&gt;" style="text;strokeColor=none;align=center;fillColor=none;html=1;verticalAlign=middle;whiteSpace=wrap;rounded=0;fontColor=#186CCC;fontStyle=1" parent="1" vertex="1">
          <mxGeometry x="500" y="438" width="80" height="30" as="geometry" />
        </mxCell>
        <mxCell id="teR98e18F6Wd4mLwN1pU-37" value="&lt;font style=&quot;font-size: 13px;&quot;&gt;Search A&lt;/font&gt;" style="text;strokeColor=none;align=center;fillColor=none;html=1;verticalAlign=middle;whiteSpace=wrap;rounded=0;fontColor=#186CCC;fontStyle=1" parent="1" vertex="1">
          <mxGeometry x="470" y="360" width="80" height="30" as="geometry" />
        </mxCell>
        <mxCell id="teR98e18F6Wd4mLwN1pU-39" value="&lt;font style=&quot;font-size: 13px;&quot;&gt;A Result&lt;/font&gt;" style="text;strokeColor=none;align=center;fillColor=none;html=1;verticalAlign=middle;whiteSpace=wrap;rounded=0;fontColor=#186CCC;fontStyle=1" parent="1" vertex="1">
          <mxGeometry x="360" y="320" width="80" height="30" as="geometry" />
        </mxCell>
        <mxCell id="teR98e18F6Wd4mLwN1pU-40" value="&lt;font style=&quot;font-size: 13px;&quot;&gt;A Result&lt;/font&gt;" style="text;strokeColor=none;align=center;fillColor=none;html=1;verticalAlign=middle;whiteSpace=wrap;rounded=0;fontColor=#186CCC;fontStyle=1" parent="1" vertex="1">
          <mxGeometry x="230" y="420" width="80" height="30" as="geometry" />
        </mxCell>
        <mxCell id="teR98e18F6Wd4mLwN1pU-41" value="&lt;font style=&quot;font-size: 13px;&quot;&gt;A Answer&lt;/font&gt;" style="text;strokeColor=none;align=center;fillColor=none;html=1;verticalAlign=middle;whiteSpace=wrap;rounded=0;fontColor=#186CCC;fontStyle=1" parent="1" vertex="1">
          <mxGeometry x="240" y="510" width="80" height="30" as="geometry" />
        </mxCell>
        <mxCell id="teR98e18F6Wd4mLwN1pU-42" value="&lt;font style=&quot;font-size: 13px;&quot;&gt;A Answer&lt;/font&gt;" style="text;strokeColor=none;align=center;fillColor=none;html=1;verticalAlign=middle;whiteSpace=wrap;rounded=0;fontColor=#186CCC;fontStyle=1" parent="1" vertex="1">
          <mxGeometry x="480" y="480" width="80" height="30" as="geometry" />
        </mxCell>
        <mxCell id="1dsoiUBW8clE4qAGLpq8-10" value="" style="group" vertex="1" connectable="0" parent="1">
          <mxGeometry x="10" y="420" width="204" height="110" as="geometry" />
        </mxCell>
        <mxCell id="1dsoiUBW8clE4qAGLpq8-11" value="" style="rounded=0;whiteSpace=wrap;html=1;fillColor=#dae8fc;strokeColor=none;" vertex="1" parent="1dsoiUBW8clE4qAGLpq8-10">
          <mxGeometry y="36.66666666666667" width="204" height="73.33333333333334" as="geometry" />
        </mxCell>
        <mxCell id="1dsoiUBW8clE4qAGLpq8-12" value="Models" style="text;strokeColor=none;align=center;fillColor=none;html=1;verticalAlign=middle;whiteSpace=wrap;rounded=0;" vertex="1" parent="1dsoiUBW8clE4qAGLpq8-10">
          <mxGeometry x="-12.67" y="7.83" width="102" height="36.66666666666667" as="geometry" />
        </mxCell>
        <mxCell id="1dsoiUBW8clE4qAGLpq8-16" value="" style="group" vertex="1" connectable="0" parent="1dsoiUBW8clE4qAGLpq8-10">
          <mxGeometry x="99.32999999999998" y="32.33" width="89.33333333333331" height="57.66999999999996" as="geometry" />
        </mxCell>
        <mxCell id="1dsoiUBW8clE4qAGLpq8-17" value="Model 2" style="rounded=1;whiteSpace=wrap;html=1;fillColor=#b0e3e6;strokeColor=#0e8088;" vertex="1" parent="1dsoiUBW8clE4qAGLpq8-16">
          <mxGeometry x="10" y="25" width="79.33333333333333" height="32.67" as="geometry" />
        </mxCell>
        <mxCell id="1dsoiUBW8clE4qAGLpq8-13" value="" style="group" vertex="1" connectable="0" parent="1dsoiUBW8clE4qAGLpq8-10">
          <mxGeometry x="-6.34" y="32.33" width="89.33333333333331" height="57.66999999999996" as="geometry" />
        </mxCell>
        <mxCell id="1dsoiUBW8clE4qAGLpq8-14" value="Model 1" style="rounded=1;whiteSpace=wrap;html=1;fillColor=#b0e3e6;strokeColor=#0e8088;" vertex="1" parent="1dsoiUBW8clE4qAGLpq8-13">
          <mxGeometry x="10" y="25" width="79.33333333333333" height="32.67" as="geometry" />
        </mxCell>
        <mxCell id="1dsoiUBW8clE4qAGLpq8-21" style="edgeStyle=entityRelationEdgeStyle;rounded=0;orthogonalLoop=1;jettySize=auto;html=1;exitX=1;exitY=0.75;exitDx=0;exitDy=0;entryX=0;entryY=1;entryDx=0;entryDy=0;dashed=1;dashPattern=12 12;fillColor=#ffe6cc;strokeColor=#d79b00;" edge="1" parent="1" source="teR98e18F6Wd4mLwN1pU-1" target="teR98e18F6Wd4mLwN1pU-7">
          <mxGeometry relative="1" as="geometry" />
        </mxCell>
        <mxCell id="1dsoiUBW8clE4qAGLpq8-22" style="edgeStyle=entityRelationEdgeStyle;rounded=0;orthogonalLoop=1;jettySize=auto;html=1;exitX=0;exitY=0.25;exitDx=0;exitDy=0;entryX=1;entryY=0.5;entryDx=0;entryDy=0;fillColor=#ffe6cc;strokeColor=#d79b00;dashed=1;dashPattern=12 12;" edge="1" parent="1" source="teR98e18F6Wd4mLwN1pU-7" target="teR98e18F6Wd4mLwN1pU-1">
          <mxGeometry relative="1" as="geometry" />
        </mxCell>
        <mxCell id="1dsoiUBW8clE4qAGLpq8-23" value="&lt;span style=&quot;font-size: 13px;&quot;&gt;&lt;font color=&quot;#ccad14&quot;&gt;OR&lt;/font&gt;&lt;/span&gt;" style="text;strokeColor=none;align=center;fillColor=none;html=1;verticalAlign=middle;whiteSpace=wrap;rounded=0;fontColor=#186CCC;fontStyle=1" vertex="1" parent="1">
          <mxGeometry x="240" y="330" width="80" height="30" as="geometry" />
        </mxCell>
      </root>
    </mxGraphModel>
  </diagram>
</mxfile>
